<?xml version="1.0" standalone="no"?>
<!DOCTYPE svg PUBLIC "-//W3C//DTD SVG 20010904//EN"
 "http://www.w3.org/TR/2001/REC-SVG-20010904/DTD/svg10.dtd">
<svg version="1.0" xmlns="http://www.w3.org/2000/svg"
 width="258.000000pt" height="195.000000pt" viewBox="0 0 258.000000 195.000000"
 preserveAspectRatio="xMidYMid meet">

<g transform="translate(0.000000,195.000000) scale(0.100000,-0.100000)"
fill="#000000" stroke="none">
<path d="M710 1939 c-119 -14 -303 -93 -406 -175 -153 -122 -239 -282 -279
-518 -17 -98 -20 -584 -6 -861 7 -134 10 -155 34 -201 51 -100 131 -157 245
-174 45 -7 170 -10 325 -8 248 3 253 3 308 29 73 35 128 85 165 151 l29 53 0
360 0 360 -27 50 c-32 60 -87 114 -148 146 -43 23 -56 24 -279 27 l-234 3 6
82 c8 105 29 175 70 229 44 58 106 87 222 104 114 17 148 30 198 74 64 55 70
136 16 205 -42 52 -131 76 -239 64z"/>
<path d="M2155 1938 c-70 -8 -193 -47 -268 -84 -244 -123 -377 -326 -426 -651
-12 -81 -13 -433 -2 -748 6 -181 10 -216 28 -257 44 -97 134 -167 243 -188 67
-13 486 -13 564 0 113 18 205 88 251 191 l26 59 -3 352 -3 353 -28 47 c-36 62
-88 112 -146 140 -43 22 -60 23 -278 26 l-233 3 0 37 c1 72 29 192 56 242 44
81 114 121 234 135 176 20 276 102 256 210 -19 98 -125 150 -271 133z"/>
</g>
</svg>
